<?xml version="1.0" encoding="UTF-8"?>
<svg width="18px" height="18px" viewBox="0 0 18 18" version="1.1" xmlns="http://www.w3.org/2000/svg" xmlns:xlink="http://www.w3.org/1999/xlink">
    <g id="Page-1" stroke="none" stroke-width="1" fill="none" fill-rule="evenodd">
        <g id="icons" transform="translate(-105.000000, -552.000000)">
            <g id="drizzle-sml" transform="translate(105.000000, 552.000000)">
                <path d="M16.8449198,13.9825175 C16.4019251,13.9825175 16.0427807,14.3347552 16.0427807,14.7692308 L16.0427807,15.8181818 C16.0427807,16.2526573 16.4019251,16.6048951 16.8449198,16.6048951 C17.2879144,16.6048951 17.6470588,16.2526573 17.6470588,15.8181818 L17.6470588,14.7692308 C17.6470588,14.3347552 17.2879144,13.9825175 16.8449198,13.9825175 Z" id="Rectangle-5" fill="#71B0F9"></path>
                <path d="M0.802139037,13.9825175 C0.359144385,13.9825175 0,14.3347552 0,14.7692308 L0,15.8181818 C0,16.2526573 0.359144385,16.6048951 0.802139037,16.6048951 C1.24513369,16.6048951 1.60427807,16.2526573 1.60427807,15.8181818 L1.60427807,14.7692308 C1.60427807,14.3347552 1.24513369,13.9825175 0.802139037,13.9825175 Z" id="Rectangle-4" fill="#71B0F9"></path>
                <path d="M12.8342246,15.0314685 C12.3912299,15.0314685 12.0320856,15.3837063 12.0320856,15.8181818 L12.0320856,16.8671329 C12.0320856,17.3016084 12.3912299,17.6538462 12.8342246,17.6538462 C13.2772193,17.6538462 13.6363636,17.3016084 13.6363636,16.8671329 L13.6363636,15.8181818 C13.6363636,15.3837063 13.2772193,15.0314685 12.8342246,15.0314685 Z" id="Rectangle-3" fill="#71B0F9"></path>
                <path d="M4.81283422,15.0314685 C4.36983957,15.0314685 4.01069519,15.3837063 4.01069519,15.8181818 L4.01069519,16.8671329 C4.01069519,17.3016084 4.36983957,17.6538462 4.81283422,17.6538462 C5.25582888,17.6538462 5.61497326,17.3016084 5.61497326,16.8671329 L5.61497326,15.8181818 C5.61497326,15.3837063 5.25582888,15.0314685 4.81283422,15.0314685 Z" id="Rectangle-2" fill="#71B0F9"></path>
                <path d="M8.82352941,13.9825175 C8.38053476,13.9825175 8.02139037,14.3347552 8.02139037,14.7692308 L8.02139037,15.8181818 C8.02139037,16.2526573 8.38053476,16.6048951 8.82352941,16.6048951 C9.26652406,16.6048951 9.62566845,16.2526573 9.62566845,15.8181818 L9.62566845,14.7692308 C9.62566845,14.3347552 9.26652406,13.9825175 8.82352941,13.9825175 Z" id="Rectangle-1" fill="#71B0F9"></path>
                <path d="M3.88235294,12.341716 C1.73818862,12.341716 0,10.6369541 0,8.53402367 C0,6.78037781 1.20873443,5.30361788 2.85365679,4.86143368 C3.13710118,2.25582216 5.38572045,0.226331361 8.11764706,0.226331361 C10.2963254,0.226331361 12.1676266,1.51706095 12.9799595,3.36138267 C13.122111,3.34836922 13.2661456,3.34171598 13.4117647,3.34171598 C15.9457771,3.34171598 18,5.3564346 18,7.84171598 C18,10.0915679 16.3165342,11.9557867 14.1176471,12.2887903 L14.1176471,12.341716 L3.88235294,12.341716 Z" id="Combined-Shape" fill="#D7D7D7"></path>
            </g>
        </g>
    </g>
</svg>
