<?xml version="1.0" encoding="UTF-8"?>
<svg width="51px" height="51px" viewBox="0 0 51 51" version="1.1" xmlns="http://www.w3.org/2000/svg" xmlns:xlink="http://www.w3.org/1999/xlink">
    <g id="Page-1" stroke="none" stroke-width="1" fill="none" fill-rule="evenodd">
        <g id="icons" transform="translate(-205.000000, -525.000000)">
            <g id="drizzle" transform="translate(205.000000, 525.000000)">
                <path d="M47.7272727,40.3939394 C46.4721212,40.3939394 45.4545455,41.4115152 45.4545455,42.6666667 L45.4545455,45.6969697 C45.4545455,46.9521212 46.4721212,47.969697 47.7272727,47.969697 C48.9824242,47.969697 50,46.9521212 50,45.6969697 L50,42.6666667 C50,41.4115152 48.9824242,40.3939394 47.7272727,40.3939394 Z" id="Rectangle-5" fill="#A5CDFA"></path>
                <path d="M2.27272727,40.3939394 C1.01757576,40.3939394 0,41.4115152 0,42.6666667 L0,45.6969697 C0,46.9521212 1.01757576,47.969697 2.27272727,47.969697 C3.52787879,47.969697 4.54545455,46.9521212 4.54545455,45.6969697 L4.54545455,42.6666667 C4.54545455,41.4115152 3.52787879,40.3939394 2.27272727,40.3939394 Z" id="Rectangle-4" fill="#A5CDFA"></path>
                <path d="M36.3636364,43.4242424 C35.1084848,43.4242424 34.0909091,44.4418182 34.0909091,45.6969697 L34.0909091,48.7272727 C34.0909091,49.9824242 35.1084848,51 36.3636364,51 C37.6187879,51 38.6363636,49.9824242 38.6363636,48.7272727 L38.6363636,45.6969697 C38.6363636,44.4418182 37.6187879,43.4242424 36.3636364,43.4242424 Z" id="Rectangle-3" fill="#A5CDFA"></path>
                <path d="M13.6363636,43.4242424 C12.3812121,43.4242424 11.3636364,44.4418182 11.3636364,45.6969697 L11.3636364,48.7272727 C11.3636364,49.9824242 12.3812121,51 13.6363636,51 C14.8915152,51 15.9090909,49.9824242 15.9090909,48.7272727 L15.9090909,45.6969697 C15.9090909,44.4418182 14.8915152,43.4242424 13.6363636,43.4242424 Z" id="Rectangle-2" fill="#A5CDFA"></path>
                <path d="M25,40.3939394 C23.7448485,40.3939394 22.7272727,41.4115152 22.7272727,42.6666667 L22.7272727,45.6969697 C22.7272727,46.9521212 23.7448485,47.969697 25,47.969697 C26.2551515,47.969697 27.2727273,46.9521212 27.2727273,45.6969697 L27.2727273,42.6666667 C27.2727273,41.4115152 26.2551515,40.3939394 25,40.3939394 Z" id="Rectangle-1" fill="#A5CDFA"></path>
                <path d="M11,35.6538462 C4.92486775,35.6538462 0,30.7289784 0,24.6538462 C0,19.5877581 3.42474754,15.3215628 8.0853609,14.0441418 C8.88845335,6.51681957 15.2595413,0.653846154 23,0.653846154 C29.172922,0.653846154 34.4749421,4.38262053 36.776552,9.71066105 C37.1793145,9.67306664 37.5874126,9.65384615 38,9.65384615 C45.1797017,9.65384615 51,15.4741444 51,22.6538462 C51,29.1534184 46.2301801,34.5389394 40,35.5009498 L40,35.6538462 L11.0000112,35.6538462 Z" id="Combined-Shape" fill="#FFFFFF"></path>
            </g>
        </g>
    </g>
</svg>
