<?xml version="1.0" encoding="UTF-8"?>
<svg width="44px" height="25px" viewBox="0 0 44 25" version="1.1" xmlns="http://www.w3.org/2000/svg" xmlns:xlink="http://www.w3.org/1999/xlink">
    <g id="Page-1" stroke="none" stroke-width="1" fill="none" fill-rule="evenodd">
        <g id="icons" transform="translate(-211.000000, -457.000000)" fill="#ACCFF6">
            <g id="dust" transform="translate(211.000000, 457.000000)">
                <rect id="Rectangle-2-Copy-5" x="16" y="21" width="8" height="4" rx="2"></rect>
                <rect id="Rectangle-2-Copy-4" x="2" y="21" width="12" height="4" rx="2"></rect>
                <rect id="Rectangle-2-Copy-6" x="27" y="21" width="12" height="4" rx="2"></rect>
                <rect id="Rectangle-2" x="32" y="14" width="12" height="4" rx="2"></rect>
                <rect id="Rectangle-2-Copy" x="24" y="14" width="6" height="4" rx="2"></rect>
                <rect id="Rectangle-2-Copy-3" x="0" y="14" width="8" height="4" rx="2"></rect>
                <rect id="Rectangle-2-Copy-2" x="10" y="14" width="12" height="4" rx="2"></rect>
                <g id="dust-copy" transform="translate(21.000000, 5.500000) rotate(-180.000000) translate(-21.000000, -5.500000) ">
                    <rect id="Rectangle-2-Copy-5" x="16" y="7" width="8" height="4" rx="2"></rect>
                    <rect id="Rectangle-2-Copy-4" x="2" y="7" width="12" height="4" rx="2"></rect>
                    <rect id="Rectangle-2-Copy-6" x="27" y="7" width="12" height="4" rx="2"></rect>
                    <rect id="Rectangle-2" x="30" y="0" width="12" height="4" rx="2"></rect>
                    <rect id="Rectangle-2-Copy" x="22" y="0" width="6" height="4" rx="2"></rect>
                    <rect id="Rectangle-2-Copy-9" x="0" y="3.55271368e-15" width="6" height="4" rx="2"></rect>
                    <rect id="Rectangle-2-Copy-2" x="8" y="1.77635684e-15" width="12" height="4" rx="2"></rect>
                </g>
            </g>
        </g>
    </g>
</svg>
