<?xml version="1.0" encoding="UTF-8"?>
<svg width="20px" height="11px" viewBox="0 0 20 11" version="1.1" xmlns="http://www.w3.org/2000/svg" xmlns:xlink="http://www.w3.org/1999/xlink">
    <g id="Page-1" stroke="none" stroke-width="1" fill="none" fill-rule="evenodd">
        <g id="icons" transform="translate(-108.000000, -464.000000)" fill="#D7D7D7">
            <g id="dust-sml" transform="translate(108.000000, 464.000000)">
                <rect id="Rectangle-2-Copy-5" x="7.27272727" y="9.24" width="3.63636364" height="1.76" rx="0.88"></rect>
                <rect id="Rectangle-2-Copy-4" x="0.909090909" y="9.24" width="5.45454545" height="1.76" rx="0.88"></rect>
                <rect id="Rectangle-2-Copy-6" x="12.2727273" y="9.24" width="5.45454545" height="1.76" rx="0.88"></rect>
                <rect id="Rectangle-2" x="14.5454545" y="6.16" width="5.45454545" height="1.76" rx="0.88"></rect>
                <rect id="Rectangle-2-Copy" x="10.9090909" y="6.16" width="2.72727273" height="1.76" rx="0.88"></rect>
                <rect id="Rectangle-2-Copy-3" x="0" y="6.16" width="3.63636364" height="1.76" rx="0.88"></rect>
                <rect id="Rectangle-2-Copy-2" x="4.54545455" y="6.16" width="5.45454545" height="1.76" rx="0.88"></rect>
                <g id="dust-copy" transform="translate(9.545455, 2.420000) rotate(-180.000000) translate(-9.545455, -2.420000) ">
                    <rect id="Rectangle-2-Copy-5" x="7.27272727" y="3.08" width="3.63636364" height="1.76" rx="0.88"></rect>
                    <rect id="Rectangle-2-Copy-4" x="0.909090909" y="3.08" width="5.45454545" height="1.76" rx="0.88"></rect>
                    <rect id="Rectangle-2-Copy-6" x="12.2727273" y="3.08" width="5.45454545" height="1.76" rx="0.88"></rect>
                    <rect id="Rectangle-2" x="13.6363636" y="0" width="5.45454545" height="1.76" rx="0.88"></rect>
                    <rect id="Rectangle-2-Copy" x="10" y="0" width="2.72727273" height="1.76" rx="0.88"></rect>
                    <rect id="Rectangle-2-Copy-9" x="0" y="1.61486985e-15" width="2.72727273" height="1.76" rx="0.88"></rect>
                    <rect id="Rectangle-2-Copy-2" x="3.63636364" y="8.07434927e-16" width="5.45454545" height="1.76" rx="0.88"></rect>
                </g>
            </g>
        </g>
    </g>
</svg>
