<?xml version="1.0" encoding="UTF-8"?>
<svg width="20px" height="18px" viewBox="0 0 20 18" version="1.1" xmlns="http://www.w3.org/2000/svg" xmlns:xlink="http://www.w3.org/1999/xlink">
    <g id="Page-1" stroke="none" stroke-width="1" fill="none" fill-rule="evenodd">
        <g id="icons" transform="translate(-108.000000, -380.000000)">
            <g id="fog-sml" transform="translate(108.000000, 380.000000)">
                <ellipse id="Oval" fill="#FEDA1C" cx="12.4180791" cy="7.75907112" rx="3.79096045" ry="3.87953556"></ellipse>
                <path d="M0.0100257561,12.2264151 C0.460699442,11.2444064 1.31831749,10.4950702 2.36178697,10.2036708 C2.62948445,7.64722174 4.75318042,5.65602322 7.33333333,5.65602322 C9.390974,5.65602322 11.158314,6.92239943 11.9255173,8.73192262 C12.0597715,8.71915471 12.1958042,8.712627 12.3333333,8.712627 C14.4234174,8.712627 16.1678931,10.220272 16.5763012,12.2264151 L0.0100257561,12.2264151 Z" id="Combined-Shape" fill="#D7D7D7"></path>
                <rect id="Rectangle-2-Copy-7" fill="#D7D7D7" x="2.33333333" y="16.6415094" width="11" height="1.35849057" rx="0.679245283"></rect>
                <rect id="Rectangle-2-Copy-8" fill="#D7D7D7" x="0" y="13.9245283" width="16.6666667" height="1.35849057" rx="0.679245283"></rect>
                <path d="M12.3664749,2.13177336 C12.8014377,2.13177336 13.1540705,1.77397384 13.1540705,1.33263805 L13.1540705,0.799881171 C13.1540705,0.358545376 12.8014377,0.000745859624 12.3664749,0.000745859624 C11.931512,0.000745859624 11.5788792,0.358545376 11.5788792,0.799881171 L11.5788792,1.33263805 C11.5788792,1.77397384 11.931512,2.13177336 12.3664749,2.13177336 Z" id="Rectangle-4" fill="#FEDA1C"></path>
                <path d="M18.7197991,8.83204346 C19.1547619,8.83204346 19.5073947,8.47424395 19.5073947,8.03290815 L19.5073947,7.50015128 C19.5073947,7.05881548 19.1547619,6.70101597 18.7197991,6.70101597 C18.2848362,6.70101597 17.9322034,7.05881548 17.9322034,7.50015128 L17.9322034,8.03290815 C17.9322034,8.47424395 18.2848362,8.83204346 18.7197991,8.83204346 Z" id="Rectangle-3" fill="#FEDA1C" transform="translate(18.719799, 7.766530) rotate(-270.000000) translate(-18.719799, -7.766530) "></path>
                <path d="M7.60818943,4.02790835 C7.76198061,4.18400611 7.96355259,4.26200172 8.16512458,4.26200172 C8.36664405,4.26200172 8.56826854,4.18400611 8.72205972,4.02796162 C9.02958957,3.71592592 9.02964208,3.20991344 8.72211223,2.89782447 L8.19783605,2.36586673 C7.8903062,2.05377775 7.39160062,2.05372447 7.08401826,2.36581345 C6.7764359,2.67784915 6.7763834,3.18386163 7.08396576,3.49595061 L7.60818943,4.02790835 Z" id="Rectangle-2" fill="#FEDA1C"></path>
                <path d="M17.6504542,2.36581345 C17.3428193,2.05372447 16.8441662,2.05372447 16.5365839,2.36586673 L16.0123602,2.89782447 C15.7048304,3.20991344 15.7048304,3.71587265 16.0124127,4.02796162 C16.1662564,4.18400611 16.3677234,4.26200172 16.5692954,4.26200172 C16.7708673,4.26200172 16.9724918,4.18395284 17.1262305,4.02790835 L17.6504542,3.49595061 C17.9580365,3.18386163 17.957984,2.67784915 17.6504542,2.36581345 Z" id="Rectangle-1" fill="#FEDA1C"></path>
            </g>
        </g>
    </g>
</svg>
