<?xml version="1.0" encoding="UTF-8"?>
<svg width="60px" height="53px" viewBox="0 0 60 53" version="1.1" xmlns="http://www.w3.org/2000/svg" xmlns:xlink="http://www.w3.org/1999/xlink">
    <g id="Page-1" stroke="none" stroke-width="1" fill="none" fill-rule="evenodd">
        <g id="icons" transform="translate(-203.000000, -362.000000)">
            <g id="fog" transform="translate(203.000000, 362.000000)">
                <ellipse id="Oval" fill="#FEDA1C" cx="37.2542373" cy="22.8461538" rx="11.3728814" ry="11.4230769"></ellipse>
                <path d="M0.0300772682,36 C1.38209833,33.10853 3.95495246,30.902151 7.0853609,30.0441418 C7.88845335,22.5168196 14.2595413,16.6538462 22,16.6538462 C28.172922,16.6538462 33.4749421,20.3826205 35.776552,25.7106611 C36.1793145,25.6730666 36.5874126,25.6538462 37,25.6538462 C43.2702523,25.6538462 48.5036793,30.0930233 49.7289035,36 L0.0300772682,36 Z" id="Combined-Shape" fill="#FFFFFF"></path>
                <rect id="Rectangle-2-Copy-7" fill="#ACCFF6" x="7" y="49" width="33" height="4" rx="2"></rect>
                <rect id="Rectangle-2-Copy-8" fill="#ACCFF6" x="0" y="41" width="50" height="4" rx="2"></rect>
                <path d="M37.0994246,6.27688822 C38.4043131,6.27688822 39.4622116,5.22336742 39.4622116,3.92387869 L39.4622116,2.35520567 C39.4622116,1.05571694 38.4043131,0.00219614223 37.0994246,0.00219614223 C35.7945361,0.00219614223 34.7366376,1.05571694 34.7366376,2.35520567 L34.7366376,3.92387869 C34.7366376,5.22336742 35.7945361,6.27688822 37.0994246,6.27688822 Z" id="Rectangle-4" fill="#FEDA1C"></path>
                <path d="M56.1593972,26.0054613 C57.4642856,26.0054613 58.5221841,24.9519405 58.5221841,23.6524518 L58.5221841,22.0837788 C58.5221841,20.78429 57.4642856,19.7307692 56.1593972,19.7307692 C54.8545087,19.7307692 53.7966102,20.78429 53.7966102,22.0837788 L53.7966102,23.6524518 C53.7966102,24.9519405 54.8545087,26.0054613 56.1593972,26.0054613 Z" id="Rectangle-3" fill="#FEDA1C" transform="translate(56.159397, 22.868115) rotate(-270.000000) translate(-56.159397, -22.868115) "></path>
                <path d="M22.8245683,11.8599524 C23.2859418,12.3195736 23.8906578,12.5492273 24.4953737,12.5492273 C25.0999322,12.5492273 25.7048056,12.3195736 26.1661792,11.8601092 C27.0887687,10.9413374 27.0889262,9.45141181 26.1663367,8.53248315 L24.5935081,6.96616314 C23.6709186,6.04723449 22.1748019,6.04707762 21.2520548,6.96600627 C20.3293077,7.88477806 20.3291502,9.3747037 21.2518973,10.2936323 L22.8245683,11.8599524 Z" id="Rectangle-2" fill="#FEDA1C"></path>
                <path d="M52.9513625,6.96600627 C52.0284579,6.04707762 50.5324987,6.04707762 49.6097516,6.96616314 L48.0370806,8.53248315 C47.1144911,9.45141181 47.1144911,10.9411806 48.0372381,11.8601092 C48.4987692,12.3195736 49.1031701,12.5492273 49.7078861,12.5492273 C50.312602,12.5492273 50.9174755,12.3194167 51.3786915,11.8599524 L52.9513625,10.2936323 C53.8741096,9.3747037 53.8739521,7.88477806 52.9513625,6.96600627 Z" id="Rectangle-1" fill="#FEDA1C"></path>
            </g>
        </g>
    </g>
</svg>
