<?xml version="1.0" encoding="UTF-8"?>
<svg width="21px" height="18px" viewBox="0 0 21 18" version="1.1" xmlns="http://www.w3.org/2000/svg" xmlns:xlink="http://www.w3.org/1999/xlink">
    <g id="Page-1" stroke="none" stroke-width="1" fill="none" fill-rule="evenodd">
        <g id="icons" transform="translate(-104.000000, -296.000000)">
            <g id="hazy-sml" transform="translate(104.000000, 296.000000)">
                <rect id="Rectangle-2-Copy-5" fill="#D7D7D7" x="8.4" y="16.2857143" width="3.36" height="1.71428571" rx="0.857142857"></rect>
                <rect id="Rectangle-2-Copy-4" fill="#D7D7D7" x="2.52" y="16.2857143" width="5.04" height="1.71428571" rx="0.857142857"></rect>
                <rect id="Rectangle-2-Copy-6" fill="#D7D7D7" x="13.6" y="16.2857143" width="5.04" height="1.71428571" rx="0.857142857"></rect>
                <rect id="Rectangle-2" fill="#D7D7D7" x="15.12" y="13.2857143" width="5.04" height="1.71428571" rx="0.857142857"></rect>
                <rect id="Rectangle-2-Copy" fill="#D7D7D7" x="10.92" y="13.2857143" width="3.36" height="1.71428571" rx="0.857142857"></rect>
                <rect id="Rectangle-2-Copy-3" fill="#D7D7D7" x="0.84" y="13.2857143" width="3.36" height="1.71428571" rx="0.857142857"></rect>
                <rect id="Rectangle-2-Copy-2" fill="#D7D7D7" x="5.04" y="13.2857143" width="5.04" height="1.71428571" rx="0.857142857"></rect>
                <path d="M15.8957835,11.5714286 C15.9380636,11.2920258 15.96,11.0057698 15.96,10.7142857 C15.96,7.63727068 13.5154747,5.14285714 10.5,5.14285714 C7.48452527,5.14285714 5.04,7.63727068 5.04,10.7142857 C5.04,11.0057698 5.06193638,11.2920258 5.10421647,11.5714286 L15.8957835,11.5714286 Z" id="Combined-Shape" fill="#FEDA1C"></path>
                <path d="M10.4999364,3.24675325 C11.0271,3.24675325 11.4544818,2.81064935 11.4544818,2.27272727 L11.4544818,0.974025974 C11.4544818,0.436103896 11.0271,0 10.4999364,0 C9.97277273,0 9.54539091,0.436103896 9.54539091,0.974025974 L9.54539091,2.27272727 C9.54539091,2.81064935 9.97277273,3.24675325 10.4999364,3.24675325 Z" id="Rectangle-5" fill="#FEDA1C"></path>
                <path d="M20.0453909,9.74025974 L18.7727273,9.74025974 C18.2455636,9.74025974 17.8181818,10.1763636 17.8181818,10.7142857 C17.8181818,11.2522078 18.2455636,11.6883117 18.7727273,11.6883117 L20.0453909,11.6883117 C20.5725545,11.6883117 20.9999364,11.2522078 20.9999364,10.7142857 C20.9999364,10.1763636 20.5726182,9.74025974 20.0453909,9.74025974 Z" id="Rectangle-4" fill="#FEDA1C"></path>
                <path d="M3.18175455,10.7142857 C3.18175455,10.1763636 2.75437273,9.74025974 2.22720909,9.74025974 L0.954609091,9.74025974 C0.427445455,9.74025974 6.36363638e-05,10.1763636 6.36363638e-05,10.7142857 C6.36363638e-05,11.2522078 0.427445455,11.6883117 0.954609091,11.6883117 L2.22720909,11.6883117 C2.75437273,11.6883117 3.18175455,11.2522078 3.18175455,10.7142857 Z" id="Rectangle-3" fill="#FEDA1C"></path>
                <path d="M16.3497091,5.71922078 C16.5940091,5.71922078 16.8383727,5.62409091 17.0247,5.4338961 L17.9245818,4.51551948 C18.2973,4.13512987 18.2973,3.51837662 17.9245182,3.13805195 C17.5517364,2.75772727 16.9473182,2.75772727 16.5746,3.13811688 L15.6747182,4.05649351 C15.302,4.43688312 15.302,5.05363636 15.6747818,5.43396104 C15.8612364,5.62415584 16.1054091,5.71922078 16.3497091,5.71922078 Z" id="Rectangle-2" fill="#FEDA1C"></path>
                <path d="M3.97523636,5.43396104 C4.16162727,5.62415584 4.40592727,5.71928571 4.65022727,5.71928571 C4.89446364,5.71928571 5.13882727,5.62422078 5.32515455,5.43402597 C5.69793636,5.0537013 5.69793636,4.43694805 5.32515455,4.05655844 L4.42533636,3.13818182 C4.05261818,2.75779221 3.4482,2.75779221 3.07541818,3.13818182 C2.70263636,3.51857143 2.70263636,4.13525974 3.07541818,4.51564935 L3.97523636,5.43396104 Z" id="Rectangle-1" fill="#FEDA1C"></path>
            </g>
        </g>
    </g>
</svg>
