<?xml version="1.0" encoding="UTF-8"?>
<svg width="50px" height="42px" viewBox="0 0 50 42" version="1.1" xmlns="http://www.w3.org/2000/svg" xmlns:xlink="http://www.w3.org/1999/xlink">
    <g id="Page-1" stroke="none" stroke-width="1" fill="none" fill-rule="evenodd">
        <g id="icons" transform="translate(-209.000000, -284.000000)">
            <g id="hazy" transform="translate(209.000000, 284.000000)">
                <g id="Group" transform="translate(2.000000, 31.000000)" fill="#ACCFF6">
                    <rect id="Rectangle-2-Copy-5" x="18" y="7" width="8" height="4" rx="2"></rect>
                    <rect id="Rectangle-2-Copy-4" x="4" y="7" width="12" height="4" rx="2"></rect>
                    <rect id="Rectangle-2-Copy-6" x="29" y="7" width="12" height="4" rx="2"></rect>
                    <rect id="Rectangle-2" x="34" y="0" width="12" height="4" rx="2"></rect>
                    <rect id="Rectangle-2-Copy" x="24" y="0" width="8" height="4" rx="2"></rect>
                    <rect id="Rectangle-2-Copy-3" x="0" y="0" width="8" height="4" rx="2"></rect>
                    <rect id="Rectangle-2-Copy-2" x="10" y="0" width="12" height="4" rx="2"></rect>
                </g>
                <path d="M37.8471036,27 C37.9477705,26.3480602 38,25.6801295 38,25 C38,17.8202983 32.1797017,12 25,12 C17.8202983,12 12,17.8202983 12,25 C12,25.6801295 12.0522295,26.3480602 12.1528964,27 L37.8471036,27 Z" id="Combined-Shape" fill="#FEDA1C"></path>
                <path d="M24.9998485,7.57575758 C26.255,7.57575758 27.2725758,6.55818182 27.2725758,5.3030303 L27.2725758,2.27272727 C27.2725758,1.01757576 26.255,0 24.9998485,0 C23.744697,0 22.7271212,1.01757576 22.7271212,2.27272727 L22.7271212,5.3030303 C22.7271212,6.55818182 23.744697,7.57575758 24.9998485,7.57575758 Z" id="Rectangle-5" fill="#FEDA1C"></path>
                <path d="M47.7271212,22.7272727 L44.6969697,22.7272727 C43.4418182,22.7272727 42.4242424,23.7448485 42.4242424,25 C42.4242424,26.2551515 43.4418182,27.2727273 44.6969697,27.2727273 L47.7271212,27.2727273 C48.9822727,27.2727273 49.9998485,26.2551515 49.9998485,25 C49.9998485,23.7448485 48.9824242,22.7272727 47.7271212,22.7272727 Z" id="Rectangle-4" fill="#FEDA1C"></path>
                <path d="M7.57560606,25 C7.57560606,23.7448485 6.5580303,22.7272727 5.30287879,22.7272727 L2.27287879,22.7272727 C1.01772727,22.7272727 0.000151515152,23.7448485 0.000151515152,25 C0.000151515152,26.2551515 1.01772727,27.2727273 2.27287879,27.2727273 L5.30287879,27.2727273 C6.5580303,27.2727273 7.57560606,26.2551515 7.57560606,25 Z" id="Rectangle-3" fill="#FEDA1C"></path>
                <path d="M38.9278788,13.3448485 C39.5095455,13.3448485 40.0913636,13.1228788 40.535,12.6790909 L42.6775758,10.5362121 C43.565,9.64863636 43.565,8.20954545 42.6774242,7.32212121 C41.7898485,6.43469697 40.3507576,6.43469697 39.4633333,7.32227273 L37.3207576,9.46515152 C36.4333333,10.3527273 36.4333333,11.7918182 37.3209091,12.6792424 C37.7648485,13.1230303 38.3462121,13.3448485 38.9278788,13.3448485 Z" id="Rectangle-2" fill="#FEDA1C"></path>
                <path d="M9.46484848,12.6792424 C9.90863636,13.1230303 10.490303,13.345 11.0719697,13.345 C11.6534848,13.345 12.235303,13.1231818 12.6789394,12.6793939 C13.5665152,11.7919697 13.5665152,10.3528788 12.6789394,9.46530303 L10.5365152,7.32242424 C9.64909091,6.43484848 8.21,6.43484848 7.32242424,7.32242424 C6.43484848,8.21 6.43484848,9.64893939 7.32242424,10.5365152 L9.46484848,12.6792424 Z" id="Rectangle-1" fill="#FEDA1C"></path>
            </g>
        </g>
    </g>
</svg>
