<?xml version="1.0" encoding="UTF-8"?>
<svg width="61px" height="52px" viewBox="0 0 61 52" version="1.1" xmlns="http://www.w3.org/2000/svg" xmlns:xlink="http://www.w3.org/1999/xlink">
    <g id="Page-1" stroke="none" stroke-width="1" fill="none" fill-rule="evenodd">
        <g id="icons" transform="translate(-202.000000, -112.000000)">
            <g id="partly-cloudy" transform="translate(202.000000, 112.000000)">
                <ellipse id="Oval" fill="#FEDA1C" cx="38.2542373" cy="22.8461538" rx="11.3728814" ry="11.4230769"></ellipse>
                <path d="M11,51.6538462 C4.92486775,51.6538462 0,46.7289784 0,40.6538462 C0,35.5877581 3.42474754,31.3215628 8.0853609,30.0441418 C8.88845335,22.5168196 15.2595413,16.6538462 23,16.6538462 C29.172922,16.6538462 34.4749421,20.3826205 36.776552,25.7106611 C37.1793145,25.6730666 37.5874126,25.6538462 38,25.6538462 C45.1797017,25.6538462 51,31.4741444 51,38.6538462 C51,45.1534184 46.2301801,50.5389394 40,51.5009498 L40,51.6538462 L11.0000112,51.6538462 Z" id="Combined-Shape" fill="#FFFFFF"></path>
                <path d="M38.0994246,6.27688822 C39.4043131,6.27688822 40.4622116,5.22336742 40.4622116,3.92387869 L40.4622116,2.35520567 C40.4622116,1.05571694 39.4043131,0.00219614223 38.0994246,0.00219614223 C36.7945361,0.00219614223 35.7366376,1.05571694 35.7366376,2.35520567 L35.7366376,3.92387869 C35.7366376,5.22336742 36.7945361,6.27688822 38.0994246,6.27688822 Z" id="Rectangle-4" fill="#FEDA1C"></path>
                <path d="M57.1593972,26.0054613 C58.4642856,26.0054613 59.5221841,24.9519405 59.5221841,23.6524518 L59.5221841,22.0837788 C59.5221841,20.78429 58.4642856,19.7307692 57.1593972,19.7307692 C55.8545087,19.7307692 54.7966102,20.78429 54.7966102,22.0837788 L54.7966102,23.6524518 C54.7966102,24.9519405 55.8545087,26.0054613 57.1593972,26.0054613 Z" id="Rectangle-3" fill="#FEDA1C" transform="translate(57.159397, 22.868115) rotate(-270.000000) translate(-57.159397, -22.868115) "></path>
                <path d="M23.8245683,11.8599524 C24.2859418,12.3195736 24.8906578,12.5492273 25.4953737,12.5492273 C26.0999322,12.5492273 26.7048056,12.3195736 27.1661792,11.8601092 C28.0887687,10.9413374 28.0889262,9.45141181 27.1663367,8.53248315 L25.5935081,6.96616314 C24.6709186,6.04723449 23.1748019,6.04707762 22.2520548,6.96600627 C21.3293077,7.88477806 21.3291502,9.3747037 22.2518973,10.2936323 L23.8245683,11.8599524 Z" id="Rectangle-2" fill="#FEDA1C"></path>
                <path d="M53.9513625,6.96600627 C53.0284579,6.04707762 51.5324987,6.04707762 50.6097516,6.96616314 L49.0370806,8.53248315 C48.1144911,9.45141181 48.1144911,10.9411806 49.0372381,11.8601092 C49.4987692,12.3195736 50.1031701,12.5492273 50.7078861,12.5492273 C51.312602,12.5492273 51.9174755,12.3194167 52.3786915,11.8599524 L53.9513625,10.2936323 C54.8741096,9.3747037 54.8739521,7.88477806 53.9513625,6.96600627 Z" id="Rectangle-1" fill="#FEDA1C"></path>
            </g>
        </g>
    </g>
</svg>
