<?xml version="1.0" encoding="UTF-8"?>
<svg width="21px" height="18px" viewBox="0 0 21 18" version="1.1" xmlns="http://www.w3.org/2000/svg" xmlns:xlink="http://www.w3.org/1999/xlink">
    <g id="Page-1" stroke="none" stroke-width="1" fill="none" fill-rule="evenodd">
        <g id="icons" transform="translate(-103.000000, -130.000000)">
            <g id="partly-cloudy-sml" transform="translate(103.000000, 130.000000)">
                <ellipse id="Oval" fill="#FEDA1C" cx="13.5423729" cy="7.61538462" rx="3.72881356" ry="3.80769231"></ellipse>
                <path d="M3.72881356,18 C1.6694467,18 0,16.2952381 0,14.1923077 C0,12.4386618 1.16093137,10.9619019 2.74080031,10.5197177 C3.01303503,7.91410618 5.17272585,5.88461538 7.79661017,5.88461538 C9.8891261,5.88461538 11.686421,7.17534498 12.4666278,9.0196667 C12.6031574,9.00665324 12.7414958,9 12.8813559,9 C15.3151531,9 17.2881356,11.0147186 17.2881356,13.5 C17.2881356,15.7498519 15.6712475,17.6140708 13.559322,17.9470743 L13.559322,18 L3.72881356,18 Z" id="Combined-Shape" fill="#D7D7D7"></path>
                <path d="M13.4916146,2.09229607 C13.9194469,2.09229607 14.2662989,1.74112247 14.2662989,1.30795956 L14.2662989,0.785068557 C14.2662989,0.351905647 13.9194469,0.000732047409 13.4916146,0.000732047409 C13.0637823,0.000732047409 12.7169304,0.351905647 12.7169304,0.785068557 L12.7169304,1.30795956 C12.7169304,1.74112247 13.0637823,2.09229607 13.4916146,2.09229607 Z" id="Rectangle-6" fill="#FEDA1C"></path>
                <path d="M13.4916146,2.09229607 C13.9194469,2.09229607 14.2662989,1.74112247 14.2662989,1.30795956 L14.2662989,0.785068557 C14.2662989,0.351905647 13.9194469,0.000732047409 13.4916146,0.000732047409 C13.0637823,0.000732047409 12.7169304,0.351905647 12.7169304,0.785068557 L12.7169304,1.30795956 C12.7169304,1.74112247 13.0637823,2.09229607 13.4916146,2.09229607 Z" id="Rectangle-5" fill="#FEDA1C"></path>
                <path d="M13.4916146,2.09229607 C13.9194469,2.09229607 14.2662989,1.74112247 14.2662989,1.30795956 L14.2662989,0.785068557 C14.2662989,0.351905647 13.9194469,0.000732047409 13.4916146,0.000732047409 C13.0637823,0.000732047409 12.7169304,0.351905647 12.7169304,0.785068557 L12.7169304,1.30795956 C12.7169304,1.74112247 13.0637823,2.09229607 13.4916146,2.09229607 Z" id="Rectangle-4" fill="#FEDA1C"></path>
                <path d="M19.740786,8.6684871 C20.1686182,8.6684871 20.5154702,8.3173135 20.5154702,7.88415059 L20.5154702,7.36125959 C20.5154702,6.92809668 20.1686182,6.57692308 19.740786,6.57692308 C19.3129537,6.57692308 18.9661017,6.92809668 18.9661017,7.36125959 L18.9661017,7.88415059 C18.9661017,8.3173135 19.3129537,8.6684871 19.740786,8.6684871 Z" id="Rectangle-3" fill="#FEDA1C" transform="translate(19.740786, 7.622705) rotate(-270.000000) translate(-19.740786, -7.622705) "></path>
                <path d="M8.81133387,3.95331745 C8.96260388,4.10652452 9.1608714,4.18307576 9.35913893,4.18307576 C9.55735481,4.18307576 9.75567398,4.10652452 9.90694399,3.95336974 C10.2094324,3.64711248 10.209484,3.1504706 9.90699563,2.84416105 L9.39131415,2.32205438 C9.08882577,2.01574483 8.59829569,2.01569254 8.29575567,2.32200209 C7.99321564,2.62825935 7.993164,3.12490123 8.29570402,3.43121078 L8.81133387,3.95331745 Z" id="Rectangle-2" fill="#FEDA1C"></path>
                <path d="M18.6889713,2.32200209 C18.3863796,2.01569254 17.8959012,2.01569254 17.5933612,2.32205438 L17.0777313,2.84416105 C16.775243,3.1504706 16.775243,3.64706019 17.077783,3.95336974 C17.2291047,4.10652452 17.4272689,4.18307576 17.6255364,4.18307576 C17.8238039,4.18307576 18.0221231,4.10647223 18.1733415,3.95331745 L18.6889713,3.43121078 C18.9915113,3.12490123 18.9914597,2.62825935 18.6889713,2.32200209 Z" id="Rectangle-1" fill="#FEDA1C"></path>
            </g>
        </g>
    </g>
</svg>
