<?xml version="1.0" encoding="UTF-8"?>
<svg width="51px" height="51px" viewBox="0 0 51 51" version="1.1" xmlns="http://www.w3.org/2000/svg" xmlns:xlink="http://www.w3.org/1999/xlink">
    <g id="Page-1" stroke="none" stroke-width="1" fill="none" fill-rule="evenodd">
        <g id="icons" transform="translate(-205.000000, -615.000000)">
            <g id="rain" transform="translate(205.000000, 615.000000)">
                <path d="M45.3030303,40.8483333 C44.2989394,40.095303 42.8743939,40.2987879 42.1212121,41.3028788 L37.5757576,47.3634848 C36.8225758,48.3677273 37.0262121,49.7921212 38.030303,50.545303 C38.4390909,50.8519697 38.9175758,51 39.3921212,51 C40.0830303,51 40.7656061,50.6860606 41.2121212,50.0907576 L45.7575758,44.0301515 C46.5107576,43.0259091 46.3071212,41.6013636 45.3030303,40.8483333 Z" id="Rectangle-4" fill="#ACCFF6"></path>
                <path d="M33.9393939,40.8483333 C32.935303,40.095303 31.5107576,40.2987879 30.7575758,41.3028788 L26.2121212,47.3634848 C25.4589394,48.3677273 25.6625758,49.7921212 26.6666667,50.545303 C27.0754545,50.8519697 27.5539394,51 28.0284848,51 C28.7195455,51 29.4019697,50.6860606 29.8484848,50.0907576 L34.3939394,44.0301515 C35.1471212,43.0259091 34.9434848,41.6013636 33.9393939,40.8483333 Z" id="Rectangle-3" fill="#ACCFF6"></path>
                <path d="M11.2121212,40.8483333 C10.2080303,40.095303 8.78348485,40.2987879 8.03030303,41.3028788 L3.48484848,47.3634848 C2.73166667,48.3677273 2.93530303,49.7921212 3.93939394,50.545303 C4.34818182,50.8519697 4.82666667,51 5.30121212,51 C5.99227273,51 6.67469697,50.6860606 7.12121212,50.0907576 L11.6666667,44.0301515 C12.4198485,43.0259091 12.2162121,41.6013636 11.2121212,40.8483333 Z" id="Rectangle-2" fill="#ACCFF6"></path>
                <path d="M22.5757576,40.8483333 C21.5716667,40.095303 20.1471212,40.2987879 19.3939394,41.3028788 L14.8484848,47.3634848 C14.095303,48.3677273 14.2989394,49.7921212 15.3030303,50.545303 C15.7118182,50.8519697 16.190303,51 16.6648485,51 C17.3559091,51 18.0383333,50.6860606 18.4848485,50.0907576 L23.030303,44.0301515 C23.7834848,43.0259091 23.5798485,41.6013636 22.5757576,40.8483333 Z" id="Rectangle-1" fill="#ACCFF6"></path>
                <path d="M11,35.6538462 C4.92486775,35.6538462 0,30.7289784 0,24.6538462 C0,19.5877581 3.42474754,15.3215628 8.0853609,14.0441418 C8.88845335,6.51681957 15.2595413,0.653846154 23,0.653846154 C29.172922,0.653846154 34.4749421,4.38262053 36.776552,9.71066105 C37.1793145,9.67306664 37.5874126,9.65384615 38,9.65384615 C45.1797017,9.65384615 51,15.4741444 51,22.6538462 C51,29.1534184 46.2301801,34.5389394 40,35.5009498 L40,35.6538462 L11.0000112,35.6538462 Z" id="Combined-Shape" fill="#FFFFFF"></path>
            </g>
        </g>
    </g>
</svg>
