<?xml version="1.0" encoding="UTF-8"?>
<svg width="18px" height="18px" viewBox="0 0 18 18" version="1.1" xmlns="http://www.w3.org/2000/svg" xmlns:xlink="http://www.w3.org/1999/xlink">
    <g id="Page-1" stroke="none" stroke-width="1" fill="none" fill-rule="evenodd">
        <g id="icons" transform="translate(-106.000000, -634.000000)">
            <g id="rain-sml" transform="translate(106.000000, 634.000000)">
                <path d="M15.9893048,14.1398077 C15.6349198,13.8791434 15.132139,13.9495804 14.8663102,14.2971503 L13.2620321,16.3950524 C12.9962032,16.7426748 13.0680749,17.2357343 13.4224599,17.496451 C13.566738,17.6026049 13.735615,17.6538462 13.9031016,17.6538462 C14.1469519,17.6538462 14.387861,17.5451748 14.5454545,17.3391084 L16.1497326,15.2412063 C16.4155615,14.8935839 16.3436898,14.400472 15.9893048,14.1398077 Z" id="Rectangle-4" fill="#71B0F9"></path>
                <path d="M11.9786096,14.1398077 C11.6242246,13.8791434 11.1214439,13.9495804 10.855615,14.2971503 L9.2513369,16.3950524 C8.98550802,16.7426748 9.05737968,17.2357343 9.41176471,17.496451 C9.55604278,17.6026049 9.72491979,17.6538462 9.89240642,17.6538462 C10.1363102,17.6538462 10.3771658,17.5451748 10.5347594,17.3391084 L12.1390374,15.2412063 C12.4048663,14.8935839 12.3329947,14.400472 11.9786096,14.1398077 Z" id="Rectangle-3" fill="#71B0F9"></path>
                <path d="M3.95721925,14.1398077 C3.60283422,13.8791434 3.10005348,13.9495804 2.8342246,14.2971503 L1.22994652,16.3950524 C0.964117647,16.7426748 1.0359893,17.2357343 1.39037433,17.496451 C1.53465241,17.6026049 1.70352941,17.6538462 1.87101604,17.6538462 C2.11491979,17.6538462 2.3557754,17.5451748 2.51336898,17.3391084 L4.11764706,15.2412063 C4.38347594,14.8935839 4.31160428,14.400472 3.95721925,14.1398077 Z" id="Rectangle-2" fill="#71B0F9"></path>
                <path d="M7.96791444,14.1398077 C7.61352941,13.8791434 7.11074866,13.9495804 6.84491979,14.2971503 L5.24064171,16.3950524 C4.97481283,16.7426748 5.04668449,17.2357343 5.40106952,17.496451 C5.54534759,17.6026049 5.7142246,17.6538462 5.88171123,17.6538462 C6.12561497,17.6538462 6.36647059,17.5451748 6.52406417,17.3391084 L8.12834225,15.2412063 C8.39417112,14.8935839 8.32229947,14.400472 7.96791444,14.1398077 Z" id="Rectangle-1" fill="#71B0F9"></path>
                <path d="M3.88235294,12.341716 C1.73818862,12.341716 0,10.6369541 0,8.53402367 C0,6.78037781 1.20873443,5.30361788 2.85365679,4.86143368 C3.13710118,2.25582216 5.38572045,0.226331361 8.11764706,0.226331361 C10.2963254,0.226331361 12.1676266,1.51706095 12.9799595,3.36138267 C13.122111,3.34836922 13.2661456,3.34171598 13.4117647,3.34171598 C15.9457771,3.34171598 18,5.3564346 18,7.84171598 C18,10.0915679 16.3165342,11.9557867 14.1176471,12.2887903 L14.1176471,12.341716 L3.88235294,12.341716 Z" id="Combined-Shape" fill="#D7D7D7"></path>
            </g>
        </g>
    </g>
</svg>
