<?xml version="1.0" standalone="no"?>
<!DOCTYPE svg PUBLIC "-//W3C//DTD SVG 20010904//EN"
 "http://www.w3.org/TR/2001/REC-SVG-20010904/DTD/svg10.dtd">
<svg version="1.0" xmlns="http://www.w3.org/2000/svg"
 width="700.000000pt" height="700.000000pt" viewBox="0 0 700.000000 700.000000"
 preserveAspectRatio="xMidYMid meet">
<metadata>
Created by potrace 1.11, written by Peter Selinger 2001-2013
</metadata>
<g transform="translate(0.000000,700.000000) scale(0.100000,-0.100000)"
fill="#000000" stroke="none">
<path d="M0 3500 l0 -3500 3500 0 3500 0 0 3500 0 3500 -3500 0 -3500 0 0
-3500z m3605 2431 c51 -23 93 -65 116 -116 16 -34 19 -67 19 -225 0 -205 -7
-244 -52 -296 -84 -96 -218 -106 -312 -23 -71 63 -78 91 -74 325 l3 201 30 48
c57 91 176 129 270 86z m-1549 -656 c64 -32 287 -256 311 -312 82 -195 -131
-385 -312 -278 -57 33 -281 264 -300 308 -19 47 -19 127 1 175 48 117 184 165
300 107z m3119 6 c49 -22 99 -77 115 -127 20 -59 8 -145 -28 -196 -41 -59
-249 -261 -292 -284 -49 -26 -143 -24 -195 3 -79 42 -119 108 -119 198 0 82
17 110 148 243 111 113 173 165 211 175 45 11 122 6 160 -12z m-1360 -535 c55
-14 124 -35 153 -46 397 -154 693 -504 787 -930 19 -86 31 -321 21 -404 l-7
-56 -1248 0 -1249 0 -6 31 c-12 60 -6 294 10 383 84 484 445 887 909 1013 134
36 189 42 360 38 142 -2 186 -7 270 -29z m-2142 -1017 c21 -5 53 -24 73 -41
124 -109 93 -310 -58 -372 -29 -13 -79 -16 -231 -16 -191 0 -194 0 -248 28
-77 39 -114 101 -114 192 0 90 37 152 114 192 53 28 55 28 240 28 102 0 203
-5 224 -11z m4142 -8 c170 -77 179 -308 16 -393 -53 -28 -54 -28 -250 -28
-225 0 -251 7 -313 80 -77 89 -68 219 20 303 51 49 89 56 297 56 163 1 196 -2
230 -18z m-3870 -960 c144 -65 151 -269 12 -343 -40 -22 -52 -23 -277 -23
-129 0 -247 3 -262 8 -38 10 -98 65 -114 104 -8 18 -14 56 -14 84 0 75 34 129
102 163 51 26 54 26 282 26 202 0 236 -3 271 -19z m1360 0 c168 -78 145 -316
-35 -361 -31 -8 -175 -10 -460 -8 -364 3 -419 5 -445 20 -64 35 -105 102 -105
172 0 82 39 142 115 177 37 17 72 19 465 19 392 0 428 -2 465 -19z m970 0
c125 -58 155 -207 61 -309 -47 -53 -66 -57 -296 -60 -140 -3 -233 0 -268 8
-182 40 -207 283 -37 361 35 16 68 19 270 19 203 0 235 -3 270 -19z m1371 -6
c59 -30 95 -79 101 -139 8 -66 -4 -112 -39 -152 -63 -72 -44 -69 -533 -69
-438 0 -440 0 -482 23 -139 74 -132 278 12 343 37 17 74 19 466 19 l425 0 50
-25z m-2945 -667 c53 -18 88 -46 111 -91 48 -92 15 -206 -74 -257 l-43 -25
-440 0 -440 0 -43 25 c-132 75 -126 266 10 334 l52 26 416 0 c289 0 427 -4
451 -12z m971 2 c50 -14 97 -55 119 -105 50 -109 -9 -232 -126 -264 -51 -14
-438 -14 -488 0 -47 13 -106 63 -123 106 -40 95 -1 203 90 248 49 24 56 25
270 25 122 0 238 -5 258 -10z m1509 -25 c82 -58 107 -149 66 -238 -20 -44 -35
-61 -73 -83 l-49 -29 -440 0 -440 0 -41 23 c-133 77 -128 268 8 336 l53 27
437 -3 436 -3 43 -30z m-2051 -677 c125 -73 124 -256 -2 -328 -43 -25 -45 -25
-288 -25 -221 0 -249 2 -284 19 -78 39 -120 137 -96 225 13 50 71 112 120 128
23 8 117 11 270 10 235 -2 235 -2 280 -29z m1241 21 c183 -62 183 -306 0 -368
-47 -15 -645 -15 -692 0 -181 61 -184 304 -4 367 43 15 652 16 696 1z"/>
</g>
</svg>
