<?xml version="1.0" encoding="UTF-8"?>
<svg width="61px" height="63px" viewBox="0 0 61 63" version="1.1" xmlns="http://www.w3.org/2000/svg" xmlns:xlink="http://www.w3.org/1999/xlink">
    <g id="Page-1" stroke="none" stroke-width="1" fill="none" fill-rule="evenodd">
        <g id="icons" transform="translate(-202.000000, -922.000000)">
            <g id="showers" transform="translate(202.000000, 922.000000)">
                <ellipse id="Oval" fill="#FEDA1C" cx="38.2542373" cy="22.8461538" rx="11.3728814" ry="11.4230769"></ellipse>
                <path d="M10.2179487,49.6538462 C4.57473147,49.6538462 0,45.0791147 0,39.4358974 C0,34.6043623 3.35337675,30.5560503 7.85965009,29.4914415 C9.39202529,23.460872 14.8574673,19 21.3648019,19 C27.1482051,19 32.1086391,22.5235499 34.2164812,27.5410272 C34.8687128,27.4222039 35.5407448,27.3601399 36.2272727,27.3601399 C42.3835097,27.3601399 47.3741259,32.350756 47.3741259,38.506993 C47.3741259,44.3504184 42.8777923,49.1436689 37.1561772,49.6156925 L37.1561772,49.6538462 L10.2179594,49.6538462 Z" id="Combined-Shape" fill="#FFFFFF"></path>
                <g id="Group-2" transform="translate(2.000000, 54.000000)" fill="#A5CDFA">
                    <path d="M41.6470588,0 C40.564183,0 39.6862745,0.832561983 39.6862745,1.85950413 L39.6862745,4.33884298 C39.6862745,5.36578512 40.564183,6.19834711 41.6470588,6.19834711 C42.7299346,6.19834711 43.6078431,5.36578512 43.6078431,4.33884298 L43.6078431,1.85950413 C43.6078431,0.832561983 42.7299346,0 41.6470588,0 Z" id="Rectangle-5"></path>
                    <path d="M1.96078431,0 C0.877908497,0 0,0.832561983 0,1.85950413 L0,4.33884298 C0,5.36578512 0.877908497,6.19834711 1.96078431,6.19834711 C3.04366013,6.19834711 3.92156863,5.36578512 3.92156863,4.33884298 L3.92156863,1.85950413 C3.92156863,0.832561983 3.04366013,0 1.96078431,0 Z" id="Rectangle-4"></path>
                    <path d="M31.2941176,2.45454545 C30.2112418,2.45454545 29.3333333,3.28710744 29.3333333,4.31404959 L29.3333333,6.79338843 C29.3333333,7.82033058 30.2112418,8.65289256 31.2941176,8.65289256 C32.3769935,8.65289256 33.254902,7.82033058 33.254902,6.79338843 L33.254902,4.31404959 C33.254902,3.28710744 32.3769935,2.45454545 31.2941176,2.45454545 Z" id="Rectangle-3"></path>
                    <path d="M12.3137255,2.45454545 C11.2308497,2.45454545 10.3529412,3.28710744 10.3529412,4.31404959 L10.3529412,6.79338843 C10.3529412,7.82033058 11.2308497,8.65289256 12.3137255,8.65289256 C13.3966013,8.65289256 14.2745098,7.82033058 14.2745098,6.79338843 L14.2745098,4.31404959 C14.2745098,3.28710744 13.3966013,2.45454545 12.3137255,2.45454545 Z" id="Rectangle-2"></path>
                    <path d="M21.8039216,0 C20.7210458,0 19.8431373,0.832561983 19.8431373,1.85950413 L19.8431373,4.33884298 C19.8431373,5.36578512 20.7210458,6.19834711 21.8039216,6.19834711 C22.8867974,6.19834711 23.7647059,5.36578512 23.7647059,4.33884298 L23.7647059,1.85950413 C23.7647059,0.832561983 22.8867974,0 21.8039216,0 Z" id="Rectangle-1"></path>
                </g>
                <path d="M38.0994246,6.27688822 C39.4043131,6.27688822 40.4622116,5.22336742 40.4622116,3.92387869 L40.4622116,2.35520567 C40.4622116,1.05571694 39.4043131,0.00219614223 38.0994246,0.00219614223 C36.7945361,0.00219614223 35.7366376,1.05571694 35.7366376,2.35520567 L35.7366376,3.92387869 C35.7366376,5.22336742 36.7945361,6.27688822 38.0994246,6.27688822 Z" id="Rectangle-4" fill="#FEDA1C"></path>
                <path d="M57.1593972,26.0054613 C58.4642856,26.0054613 59.5221841,24.9519405 59.5221841,23.6524518 L59.5221841,22.0837788 C59.5221841,20.78429 58.4642856,19.7307692 57.1593972,19.7307692 C55.8545087,19.7307692 54.7966102,20.78429 54.7966102,22.0837788 L54.7966102,23.6524518 C54.7966102,24.9519405 55.8545087,26.0054613 57.1593972,26.0054613 Z" id="Rectangle-3" fill="#FEDA1C" transform="translate(57.159397, 22.868115) rotate(-270.000000) translate(-57.159397, -22.868115) "></path>
                <path d="M23.8245683,11.8599524 C24.2859418,12.3195736 24.8906578,12.5492273 25.4953737,12.5492273 C26.0999322,12.5492273 26.7048056,12.3195736 27.1661792,11.8601092 C28.0887687,10.9413374 28.0889262,9.45141181 27.1663367,8.53248315 L25.5935081,6.96616314 C24.6709186,6.04723449 23.1748019,6.04707762 22.2520548,6.96600627 C21.3293077,7.88477806 21.3291502,9.3747037 22.2518973,10.2936323 L23.8245683,11.8599524 Z" id="Rectangle-2" fill="#FEDA1C"></path>
                <path d="M53.9513625,6.96600627 C53.0284579,6.04707762 51.5324987,6.04707762 50.6097516,6.96616314 L49.0370806,8.53248315 C48.1144911,9.45141181 48.1144911,10.9411806 49.0372381,11.8601092 C49.4987692,12.3195736 50.1031701,12.5492273 50.7078861,12.5492273 C51.312602,12.5492273 51.9174755,12.3194167 52.3786915,11.8599524 L53.9513625,10.2936323 C54.8741096,9.3747037 54.8739521,7.88477806 53.9513625,6.96600627 Z" id="Rectangle-1" fill="#FEDA1C"></path>
            </g>
        </g>
    </g>
</svg>
