<?xml version="1.0" encoding="UTF-8"?>
<svg width="19px" height="20px" viewBox="0 0 19 20" version="1.1" xmlns="http://www.w3.org/2000/svg" xmlns:xlink="http://www.w3.org/1999/xlink">
    <g id="Page-1" stroke="none" stroke-width="1" fill="none" fill-rule="evenodd">
        <g id="icons" transform="translate(-113.000000, -944.000000)">
            <g id="showers-sml" transform="translate(113.000000, 944.000000)">
                <ellipse id="Oval" fill="#FEDA1C" cx="11.9152542" cy="7.13942308" rx="3.54237288" ry="3.56971154"></ellipse>
                <path d="M3.18263976,15.5168269 C1.42491636,15.5168269 0,14.0872233 0,12.3237179 C0,10.8138632 1.0444944,9.54876572 2.44808773,9.21607548 C2.92538493,7.33152249 4.62773573,5.9375 6.65461042,5.9375 C8.4559983,5.9375 10.0010515,7.03860936 10.6575925,8.60657101 C10.8607466,8.56943871 11.0700681,8.55004371 11.2839046,8.55004371 C13.2014211,8.55004371 14.7558753,10.1096113 14.7558753,12.0334353 C14.7558753,13.8595058 13.3553779,15.3573965 11.5732355,15.5049039 L11.5732355,15.5168269 L3.18263989,15.5168269 Z" id="Combined-Shape" fill="#D7D7D7"></path>
                <g id="Group-2" transform="translate(0.622951, 16.875000)" fill="#71B0F9">
                    <path d="M12.9720347,0 C12.6347455,0 12.3612986,0.26017562 12.3612986,0.581095041 L12.3612986,1.35588843 C12.3612986,1.67680785 12.6347455,1.93698347 12.9720347,1.93698347 C13.3093239,1.93698347 13.5827708,1.67680785 13.5827708,1.35588843 L13.5827708,0.581095041 C13.5827708,0.26017562 13.3093239,0 12.9720347,0 Z" id="Rectangle-5"></path>
                    <path d="M0.610736098,0 C0.273446909,0 0,0.26017562 0,0.581095041 L0,1.35588843 C0,1.67680785 0.273446909,1.93698347 0.610736098,1.93698347 C0.948025287,1.93698347 1.2214722,1.67680785 1.2214722,1.35588843 L1.2214722,0.581095041 C1.2214722,0.26017562 0.948025287,0 0.610736098,0 Z" id="Rectangle-4"></path>
                    <path d="M9.74734812,0.767045455 C9.41005893,0.767045455 9.13661202,1.02722107 9.13661202,1.3481405 L9.13661202,2.12293388 C9.13661202,2.44385331 9.41005893,2.70402893 9.74734812,2.70402893 C10.0846373,2.70402893 10.3580842,2.44385331 10.3580842,2.12293388 L10.3580842,1.3481405 C10.3580842,1.02722107 10.0846373,0.767045455 9.74734812,0.767045455 Z" id="Rectangle-3"></path>
                    <path d="M3.83542269,0.767045455 C3.4981335,0.767045455 3.2246866,1.02722107 3.2246866,1.3481405 L3.2246866,2.12293388 C3.2246866,2.44385331 3.4981335,2.70402893 3.83542269,2.70402893 C4.17271188,2.70402893 4.44615879,2.44385331 4.44615879,2.12293388 L4.44615879,1.3481405 C4.44615879,1.02722107 4.17271188,0.767045455 3.83542269,0.767045455 Z" id="Rectangle-2"></path>
                    <path d="M6.79138541,0 C6.45409622,0 6.18064931,0.26017562 6.18064931,0.581095041 L6.18064931,1.35588843 C6.18064931,1.67680785 6.45409622,1.93698347 6.79138541,1.93698347 C7.1286746,1.93698347 7.4021215,1.67680785 7.4021215,1.35588843 L7.4021215,0.581095041 C7.4021215,0.26017562 7.1286746,0 6.79138541,0 Z" id="Rectangle-1"></path>
                </g>
                <path d="M11.8670339,1.96152757 C12.2734746,1.96152757 12.6029839,1.63230232 12.6029839,1.22621209 L12.6029839,0.736001772 C12.6029839,0.329911544 12.2734746,0.000686294446 11.8670339,0.000686294446 C11.4605932,0.000686294446 11.1310839,0.329911544 11.1310839,0.736001772 L11.1310839,1.22621209 C11.1310839,1.63230232 11.4605932,1.96152757 11.8670339,1.96152757 Z" id="Rectangle-4" fill="#FEDA1C"></path>
                <path d="M17.8037467,8.12670666 C18.2101873,8.12670666 18.5396967,7.79748141 18.5396967,7.39139118 L18.5396967,6.90118086 C18.5396967,6.49509063 18.2101873,6.16586538 17.8037467,6.16586538 C17.397306,6.16586538 17.0677966,6.49509063 17.0677966,6.90118086 L17.0677966,7.39139118 C17.0677966,7.79748141 17.397306,8.12670666 17.8037467,8.12670666 Z" id="Rectangle-3" fill="#FEDA1C" transform="translate(17.803747, 7.146286) rotate(-270.000000) translate(-17.803747, -7.146286) "></path>
                <path d="M7.42076717,3.70623511 C7.56447368,3.84986674 7.75282783,3.92163353 7.94118198,3.92163353 C8.12948707,3.92163353 8.31789028,3.84986674 8.46159679,3.70628413 C8.74896075,3.41916795 8.74900981,2.95356619 8.46164585,2.66640098 L7.97174844,2.17692598 C7.68438448,1.88976078 7.21838091,1.88971176 6.93096789,2.17687696 C6.64355486,2.46399314 6.6435058,2.9295949 6.93091882,3.21676011 L7.42076717,3.70623511 Z" id="Rectangle-2" fill="#FEDA1C"></path>
                <path d="M16.8045227,2.17687696 C16.5170607,1.88971176 16.0511062,1.88971176 15.7636931,2.17692598 L15.2738448,2.66640098 C14.9864808,2.95356619 14.9864808,3.41911893 15.2738938,3.70628413 C15.4176494,3.84986674 15.6059054,3.92163353 15.7942596,3.92163353 C15.9826137,3.92163353 16.1710169,3.84981771 16.3146744,3.70623511 L16.8045227,3.21676011 C17.0919358,2.9295949 17.0918867,2.46399314 16.8045227,2.17687696 Z" id="Rectangle-1" fill="#FEDA1C"></path>
            </g>
        </g>
    </g>
</svg>
