<?xml version="1.0" encoding="UTF-8"?>
<svg width="18px" height="23px" viewBox="0 0 18 23" version="1.1" xmlns="http://www.w3.org/2000/svg" xmlns:xlink="http://www.w3.org/1999/xlink">
    <g id="Page-1" stroke="none" stroke-width="1" fill="none" fill-rule="evenodd">
        <g id="icons" transform="translate(-109.000000, -841.000000)">
            <g id="storm-sml" transform="translate(109.000000, 841.000000)">
                <path d="M16.436126,13.8127941 C16.1604932,13.6134626 15.7694415,13.6673262 15.5626857,13.933115 L14.3149138,15.537393 C14.1081581,15.8032219 14.1640582,16.1802674 14.439691,16.379639 C14.5519073,16.4608155 14.6832561,16.5 14.8135235,16.5 C15.0031848,16.5 15.1905585,16.4168984 15.3131313,16.2593182 L16.5609031,14.6550401 C16.7676589,14.3892112 16.7117588,14.0121257 16.436126,13.8127941 Z" id="Rectangle" fill="#7DB5F3"></path>
                <path d="M12.436126,13.8127941 C12.1604932,13.6134626 11.7694415,13.6673262 11.5626857,13.933115 L10.3149138,15.537393 C10.1081581,15.8032219 10.1640582,16.1802674 10.439691,16.379639 C10.5519073,16.4608155 10.6832561,16.5 10.8135235,16.5 C11.0031848,16.5 11.1905585,16.4168984 11.3131313,16.2593182 L12.5609031,14.6550401 C12.7676589,14.3892112 12.7117588,14.0121257 12.436126,13.8127941 Z" id="Rectangle" fill="#7DB5F3"></path>
                <path d="M3.0778372,13.8127941 C2.8022044,13.6134626 2.4111527,13.6673262 2.20439691,13.933115 L0.956625074,15.537393 C0.749869281,15.8032219 0.805769459,16.1802674 1.08140226,16.379639 C1.19361854,16.4608155 1.32496732,16.5 1.4552347,16.5 C1.64493761,16.5 1.83226976,16.4168984 1.95484254,16.2593182 L3.20261438,14.6550401 C3.40937017,14.3892112 3.35346999,14.0121257 3.0778372,13.8127941 Z" id="Rectangle" fill="#7DB5F3"></path>
                <path d="M3.88235294,12 C1.73818862,12 0,10.3114739 0,8.22857143 C0,6.49162696 1.20873443,5.02893141 2.85365679,4.59095849 C3.13710118,2.01016231 5.38572045,0 8.11764706,0 C10.2963254,0 12.1676266,1.27843693 12.9799595,3.10519368 C13.122111,3.09230417 13.2661456,3.08571429 13.4117647,3.08571429 C15.9457771,3.08571429 18,5.08124512 18,7.54285714 C18,9.7712819 16.3165342,11.6177463 14.1176471,11.9475784 L14.1176471,12 L3.88235294,12 Z" id="Combined-Shape" fill="#9B9B9B"></path>
                <polygon id="Shape" fill="#F9D44C" points="9.16772461 13.5882353 5.93724527 13.5882353 3.56862745 17.5915919 5.81896602 17.5915919 4.11474609 22.8984375 9.32462325 15.9758409 7.13929102 15.9758409"></polygon>
            </g>
        </g>
    </g>
</svg>
