<?xml version="1.0" encoding="UTF-8"?>
<svg width="45px" height="52px" viewBox="0 0 45 52" version="1.1" xmlns="http://www.w3.org/2000/svg" xmlns:xlink="http://www.w3.org/1999/xlink">
    <g id="Page-1" stroke="none" stroke-width="1" fill="none" fill-rule="evenodd">
        <g id="icons" transform="translate(-208.000000, -836.000000)">
            <g id="storm" transform="translate(208.000000, 836.000000)">
                <path d="M41.5690236,34.0361573 C40.788064,33.472829 39.6800842,33.6250523 39.0942761,34.3761945 L35.5589226,38.9100238 C34.9731145,39.6612794 35.1314983,40.7268426 35.9124579,41.2902842 C36.230404,41.519696 36.6025589,41.6304348 36.9716498,41.6304348 C37.5090236,41.6304348 38.0399158,41.3955824 38.3872054,40.950247 L41.9225589,36.4164177 C42.508367,35.6651622 42.3499832,34.5994856 41.5690236,34.0361573 Z" id="Rectangle" fill="#B2D1F2"></path>
                <path d="M31.2356902,34.0361573 C30.4547306,33.472829 29.3467508,33.6250523 28.7609428,34.3761945 L25.2255892,38.9100238 C24.6397811,39.6612794 24.798165,40.7268426 25.5791246,41.2902842 C25.8970707,41.519696 26.2692256,41.6304348 26.6383165,41.6304348 C27.1756902,41.6304348 27.7065825,41.3955824 28.0538721,40.950247 L31.5892256,36.4164177 C32.1750337,35.6651622 32.0166498,34.5994856 31.2356902,34.0361573 Z" id="Rectangle" fill="#B2D1F2"></path>
                <path d="M6.72053872,34.0361573 C5.93957912,33.472829 4.83159933,33.6250523 4.24579125,34.3761945 L0.71043771,38.9100238 C0.12462963,39.6612794 0.283013468,40.7268426 1.06397306,41.2902842 C1.38191919,41.519696 1.75407407,41.6304348 2.12316498,41.6304348 C2.66065657,41.6304348 3.19143098,41.3955824 3.53872054,40.950247 L7.07407407,36.4164177 C7.65988215,35.6651622 7.50149832,34.5994856 6.72053872,34.0361573 Z" id="Rectangle" fill="#B2D1F2"></path>
                <path d="M9.70588235,30 C4.34547155,30 0,25.7786848 0,20.5714286 C0,16.2290674 3.02183607,12.5723285 7.13414197,11.4773962 C7.84275296,5.02540579 13.4643011,0 20.2941176,0 C25.7408135,0 30.4190665,3.19609232 32.4498988,7.7629842 C32.8052775,7.73076041 33.1653641,7.71428571 33.5294118,7.71428571 C39.8644427,7.71428571 45,12.7031128 45,18.8571429 C45,24.4282047 40.7913354,29.0443657 35.2941176,29.868946 L35.2941176,30 L9.70588235,30 Z" id="Combined-Shape" fill="#FFFFFF"></path>
                <polygon id="Shape" fill="#F9D44C" points="19.9377441 33.4015345 14.3320313 33.4015345 7.62667447 42.2822231 12.8828125 42.2822231 10.560791 52.1071777 21.0402649 38.6652832 15.7646484 38.6494141"></polygon>
            </g>
        </g>
    </g>
</svg>
