<?xml version="1.0" encoding="UTF-8"?>
<svg width="50px" height="50px" viewBox="0 0 50 50" version="1.1" xmlns="http://www.w3.org/2000/svg" xmlns:xlink="http://www.w3.org/1999/xlink">
    <g id="Page-1" stroke="none" stroke-width="1" fill="none" fill-rule="evenodd">
        <g id="icons" transform="translate(-207.000000, -32.000000)" fill="#FEDA1C">
            <g id="sunny" transform="translate(207.000000, 32.000000)">
                <path d="M24.9998485,7.57575758 C26.255,7.57575758 27.2725758,6.55818182 27.2725758,5.3030303 L27.2725758,2.27272727 C27.2725758,1.01757576 26.255,0 24.9998485,0 C23.744697,0 22.7271212,1.01757576 22.7271212,2.27272727 L22.7271212,5.3030303 C22.7271212,6.55818182 23.744697,7.57575758 24.9998485,7.57575758 Z" id="Rectangle"></path>
                <path d="M24.9998485,42.4242424 C23.744697,42.4242424 22.7271212,43.4418182 22.7271212,44.6969697 L22.7271212,47.7272727 C22.7271212,48.9824242 23.744697,50 24.9998485,50 C26.255,50 27.2725758,48.9824242 27.2725758,47.7272727 L27.2725758,44.6969697 C27.2725758,43.4418182 26.2551515,42.4242424 24.9998485,42.4242424 Z" id="Rectangle"></path>
                <path d="M47.7271212,22.7272727 L44.6969697,22.7272727 C43.4418182,22.7272727 42.4242424,23.7448485 42.4242424,25 C42.4242424,26.2551515 43.4418182,27.2727273 44.6969697,27.2727273 L47.7271212,27.2727273 C48.9822727,27.2727273 49.9998485,26.2551515 49.9998485,25 C49.9998485,23.7448485 48.9824242,22.7272727 47.7271212,22.7272727 Z" id="Rectangle"></path>
                <path d="M7.57560606,25 C7.57560606,23.7448485 6.5580303,22.7272727 5.30287879,22.7272727 L2.27287879,22.7272727 C1.01772727,22.7272727 0.000151515152,23.7448485 0.000151515152,25 C0.000151515152,26.2551515 1.01772727,27.2727273 2.27287879,27.2727273 L5.30287879,27.2727273 C6.5580303,27.2727273 7.57560606,26.2551515 7.57560606,25 Z" id="Rectangle"></path>
                <path d="M38.9278788,13.3448485 C39.5095455,13.3448485 40.0913636,13.1228788 40.535,12.6790909 L42.6775758,10.5362121 C43.565,9.64863636 43.565,8.20954545 42.6774242,7.32212121 C41.7898485,6.43469697 40.3507576,6.43469697 39.4633333,7.32227273 L37.3207576,9.46515152 C36.4333333,10.3527273 36.4333333,11.7918182 37.3209091,12.6792424 C37.7648485,13.1230303 38.3462121,13.3448485 38.9278788,13.3448485 Z" id="Rectangle"></path>
                <path d="M9.465,37.3207576 L7.32227273,39.4634848 C6.43469697,40.3510606 6.43469697,41.79 7.32227273,42.6775758 C7.76606061,43.1213636 8.34772727,43.3431818 8.92924242,43.3431818 C9.51090909,43.3431818 10.0925758,43.1213636 10.5362121,42.6775758 L12.6789394,40.5348485 C13.5665152,39.6472727 13.5665152,38.2083333 12.6789394,37.3207576 C11.7916667,36.4331818 10.3525758,36.4331818 9.465,37.3207576 Z" id="Rectangle"></path>
                <path d="M40.535,37.3207576 C39.6474242,36.4333333 38.2083333,36.4330303 37.3209091,37.3206061 C36.4333333,38.2080303 36.4333333,39.6471212 37.3207576,40.534697 L39.4633333,42.6774242 C39.9071212,43.1212121 40.4887879,43.3430303 41.0704545,43.3430303 C41.6519697,43.3430303 42.2337879,43.1212121 42.6774242,42.6774242 C43.565,41.79 43.565,40.3509091 42.6775758,39.4633333 L40.535,37.3207576 Z" id="Rectangle"></path>
                <path d="M9.46484848,12.6792424 C9.90863636,13.1230303 10.490303,13.345 11.0719697,13.345 C11.6534848,13.345 12.235303,13.1231818 12.6789394,12.6793939 C13.5665152,11.7919697 13.5665152,10.3528788 12.6789394,9.46530303 L10.5365152,7.32242424 C9.64909091,6.43484848 8.21,6.43484848 7.32242424,7.32242424 C6.43484848,8.21 6.43484848,9.64893939 7.32242424,10.5365152 L9.46484848,12.6792424 Z" id="Rectangle"></path>
                <circle id="Oval" cx="25" cy="25" r="13"></circle>
            </g>
        </g>
    </g>
</svg>
