<?xml version="1.0" encoding="UTF-8"?>
<svg width="18px" height="18px" viewBox="0 0 18 18" version="1.1" xmlns="http://www.w3.org/2000/svg" xmlns:xlink="http://www.w3.org/1999/xlink">
    <g id="Page-1" stroke="none" stroke-width="1" fill="none" fill-rule="evenodd">
        <g id="icons" transform="translate(-103.000000, -49.000000)" fill="#FEDA1C">
            <g id="sunny-sml" transform="translate(103.000000, 49.000000)">
                <path d="M8.99994545,2.72727273 C9.4518,2.72727273 9.81812727,2.36094545 9.81812727,1.90909091 L9.81812727,0.818181818 C9.81812727,0.366327273 9.4518,0 8.99994545,0 C8.54809091,0 8.18176364,0.366327273 8.18176364,0.818181818 L8.18176364,1.90909091 C8.18176364,2.36094545 8.54809091,2.72727273 8.99994545,2.72727273 Z" id="Rectangle"></path>
                <path d="M8.99994545,15.2727273 C8.54809091,15.2727273 8.18176364,15.6390545 8.18176364,16.0909091 L8.18176364,17.1818182 C8.18176364,17.6336727 8.54809091,18 8.99994545,18 C9.4518,18 9.81812727,17.6336727 9.81812727,17.1818182 L9.81812727,16.0909091 C9.81812727,15.6390545 9.45185455,15.2727273 8.99994545,15.2727273 Z" id="Rectangle"></path>
                <path d="M17.1817636,8.18181818 L16.0909091,8.18181818 C15.6390545,8.18181818 15.2727273,8.54814545 15.2727273,9 C15.2727273,9.45185455 15.6390545,9.81818182 16.0909091,9.81818182 L17.1817636,9.81818182 C17.6336182,9.81818182 17.9999455,9.45185455 17.9999455,9 C17.9999455,8.54814545 17.6336727,8.18181818 17.1817636,8.18181818 Z" id="Rectangle"></path>
                <path d="M2.72721818,9 C2.72721818,8.54814545 2.36089091,8.18181818 1.90903636,8.18181818 L0.818236364,8.18181818 C0.366381818,8.18181818 5.45454545e-05,8.54814545 5.45454545e-05,9 C5.45454545e-05,9.45185455 0.366381818,9.81818182 0.818236364,9.81818182 L1.90903636,9.81818182 C2.36089091,9.81818182 2.72721818,9.45185455 2.72721818,9 Z" id="Rectangle"></path>
                <path d="M14.0140364,4.80414545 C14.2234364,4.80414545 14.4328909,4.72423636 14.5926,4.56447273 L15.3639273,3.79303636 C15.6834,3.47350909 15.6834,2.95543636 15.3638727,2.63596364 C15.0443455,2.31649091 14.5262727,2.31649091 14.2068,2.63601818 L13.4354727,3.40745455 C13.116,3.72698182 13.116,4.24505455 13.4355273,4.56452727 C13.5953455,4.72429091 13.8046364,4.80414545 14.0140364,4.80414545 Z" id="Rectangle"></path>
                <path d="M3.4074,13.4354727 L2.63601818,14.2068545 C2.31649091,14.5263818 2.31649091,15.0444 2.63601818,15.3639273 C2.79578182,15.5236909 3.00518182,15.6035455 3.21452727,15.6035455 C3.42392727,15.6035455 3.63332727,15.5236909 3.79303636,15.3639273 L4.56441818,14.5925455 C4.88394545,14.2730182 4.88394545,13.755 4.56441818,13.4354727 C4.245,13.1159455 3.72692727,13.1159455 3.4074,13.4354727 Z" id="Rectangle"></path>
                <path d="M14.5926,13.4354727 C14.2730727,13.116 13.755,13.1158909 13.4355273,13.4354182 C13.116,13.7548909 13.116,14.2729636 13.4354727,14.5924909 L14.2068,15.3638727 C14.3665636,15.5236364 14.5759636,15.6034909 14.7853636,15.6034909 C14.9947091,15.6034909 15.2041636,15.5236364 15.3638727,15.3638727 C15.6834,15.0444 15.6834,14.5263273 15.3639273,14.2068 L14.5926,13.4354727 Z" id="Rectangle"></path>
                <path d="M3.40734545,4.56452727 C3.56710909,4.72429091 3.77650909,4.8042 3.98590909,4.8042 C4.19525455,4.8042 4.40470909,4.72434545 4.56441818,4.56458182 C4.88394545,4.24510909 4.88394545,3.72703636 4.56441818,3.40750909 L3.79314545,2.63607273 C3.47367273,2.31654545 2.9556,2.31654545 2.63607273,2.63607273 C2.31654545,2.9556 2.31654545,3.47361818 2.63607273,3.79314545 L3.40734545,4.56452727 Z" id="Rectangle"></path>
                <circle id="Oval" cx="9" cy="9" r="4.68"></circle>
            </g>
        </g>
    </g>
</svg>
