<?xml version="1.0" encoding="UTF-8"?>
<svg width="53px" height="47px" viewBox="0 0 53 47" version="1.1" xmlns="http://www.w3.org/2000/svg" xmlns:xlink="http://www.w3.org/1999/xlink">
    <g id="Page-1" stroke="none" stroke-width="1" fill="none" fill-rule="evenodd">
        <g id="icons" transform="translate(-206.000000, -719.000000)" fill="#FFFFFF">
            <g id="wind" transform="translate(206.000000, 719.000000)">
                <path d="M47,21.0075085 C47,17.1464164 43.9306906,14 40.1605389,14 C36.3903872,14 33.3230773,17.1382253 33.3230773,21.0003413 C33.3230773,22.1040956 34.1968807,22.9969283 35.2736384,22.9969283 C36.3513959,22.9969283 37.2241996,22.1020478 37.2241996,20.9982935 C37.2241996,19.3416382 38.5399035,17.9921502 40.1605389,17.9921502 C41.7811742,17.9921502 43.0968782,19.3416382 43.0968782,21.0003413 C43.0968782,23.1986348 41.351271,24.9894198 39.2017546,24.9894198 L8.9515609,24.9894198 C7.87380339,24.9894198 7,25.8914676 7,26.9952218 C7,28.0989761 7.87380339,29 8.9515609,29 L39.2027544,29 C43.5007873,29 47,25.4102389 47,21.0075085 Z" id="Shape"></path>
                <path d="M6.68627451,21 C2.99354707,21 0,18.0450793 0,14.4 C0,11.3603472 2.08170929,8.80062996 4.91463114,8.03417736 C5.40278537,3.51778405 9.27540744,0 13.9803922,0 C17.7325604,0 20.955357,2.23726462 22.3543748,5.43408894 C22.5991911,5.41153229 22.8472508,5.4 23.0980392,5.4 C27.4621717,5.4 31,8.89217895 31,13.2 C31,17.0997433 28.1006977,20.331056 24.3137255,20.9082622 L24.3137255,21 L6.68627452,21 Z" id="Combined-Shape"></path>
                <path d="M45.2136795,32 L16.9480779,32 C15.872691,32 15,32.9028489 15,34.0075835 C15,35.1112933 15.872691,36.0131174 16.9480779,36.0131174 L45.2136795,36.0131174 C47.3564653,36.0131174 49.1028457,37.7952449 49.1028457,39.9965157 C49.1028457,41.6556671 47.7888168,43.0032794 46.1692461,43.0032794 C44.554668,43.0032794 43.2376435,41.6525927 43.2376435,39.9924165 C43.2376435,38.8876819 42.3659511,37.9909818 41.2895657,37.9909818 C40.2131802,37.9909818 39.3414878,38.8856323 39.3414878,39.9903669 C39.3414878,43.8548883 42.4038942,47 46.1692461,47 C49.9345981,47 53,43.8579627 53,39.9924165 C53,35.5837262 49.5072391,32 45.2136795,32 Z" id="Shape"></path>
            </g>
        </g>
    </g>
</svg>
