<?xml version="1.0" encoding="UTF-8"?>
<svg width="21px" height="18px" viewBox="0 0 21 18" version="1.1" xmlns="http://www.w3.org/2000/svg" xmlns:xlink="http://www.w3.org/1999/xlink">
    <g id="Page-1" stroke="none" stroke-width="1" fill="none" fill-rule="evenodd">
        <g id="icons" transform="translate(-107.000000, -736.000000)" fill="#D7D7D7">
            <g id="wind-sml" transform="translate(107.000000, 736.000000)">
                <path d="M18.7358491,8.0454288 C18.7358491,6.56671266 17.5776191,5.36170213 16.1549203,5.36170213 C14.7322216,5.36170213 13.5747462,6.56357563 13.5747462,8.0426839 C13.5747462,8.4653983 13.9044833,8.80733425 14.310807,8.80733425 C14.7175079,8.80733425 15.0468678,8.46461404 15.0468678,8.04189964 C15.0468678,7.40743592 15.5433598,6.8906107 16.1549203,6.8906107 C16.7664808,6.8906107 17.2629729,7.40743592 17.2629729,8.0426839 C17.2629729,8.88458355 16.6042532,9.57041609 15.7931149,9.57041609 L4.37794751,9.57041609 C3.97124656,9.57041609 3.64150943,9.9158812 3.64150943,10.3385956 C3.64150943,10.76131 3.97124656,11.106383 4.37794751,11.106383 L15.7934922,11.106383 C17.4153914,11.106383 18.7358491,9.73158086 18.7358491,8.0454288 Z" id="Shape"></path>
                <path d="M2.58823529,8 C1.15879241,8 0,6.87431594 0,5.48571429 C0,4.32775131 0.805822951,3.35262094 1.90243786,3.06063899 C2.09140079,1.34010821 3.5904803,0 5.41176471,0 C6.86421694,0 8.11175108,0.852291286 8.65330636,2.07012912 C8.74807399,2.06153611 8.84409709,2.05714286 8.94117647,2.05714286 C10.6305181,2.05714286 12,3.38749674 12,5.02857143 C12,6.51418793 10.8776894,7.74516418 9.41176471,7.96505226 L9.41176471,8 L2.58823544,8 Z" id="Combined-Shape"></path>
                <path d="M18.0617658,12.2553191 L7.39550109,12.2553191 C6.9896947,12.2553191 6.66037736,12.6010911 6.66037736,13.0241809 C6.66037736,13.4468783 6.9896947,13.7922577 7.39550109,13.7922577 L18.0617658,13.7922577 C18.8703643,13.7922577 19.5293757,14.4747747 19.5293757,15.3178145 C19.5293757,15.9532342 19.0335158,16.469341 18.422357,16.469341 C17.8130823,16.469341 17.3160919,15.9520568 17.3160919,15.3162446 C17.3160919,14.8931548 16.9871513,14.5497377 16.5809682,14.5497377 C16.174785,14.5497377 15.8458444,14.8923698 15.8458444,15.3154597 C15.8458444,16.7954891 17.0014695,18 18.422357,18 C19.8432446,18 21,16.7966666 21,15.3162446 C21,13.62781 19.681977,12.2553191 18.0617658,12.2553191 Z" id="Shape"></path>
            </g>
        </g>
    </g>
</svg>
